solid ASCII
  facet normal -1.000000e+00 -1.342325e-31 -4.736952e-16
    outer loop
      vertex   -1.240955e+02 1.788303e+02 -7.105427e-14
      vertex   -1.240955e+02 -7.191428e+01 0.000000e+00
      vertex   -1.240955e+02 1.788303e+02 3.000000e+02
    endloop
  endfacet
  facet normal -1.000000e+00 -1.073860e-31 -4.736952e-16
    outer loop
      vertex   -1.240955e+02 1.788303e+02 3.000000e+02
      vertex   -1.240955e+02 -7.191428e+01 0.000000e+00
      vertex   -1.240955e+02 -7.191428e+01 3.000000e+02
    endloop
  endfacet
  facet normal -1.000000e+00 -1.073860e-31 -4.736952e-16
    outer loop
      vertex   -1.240955e+02 1.788303e+02 3.000000e+02
      vertex   -1.240955e+02 -7.191428e+01 3.000000e+02
      vertex   -1.240955e+02 1.788303e+02 6.000000e+02
    endloop
  endfacet
  facet normal -1.000000e+00 -2.147719e-31 -4.736952e-16
    outer loop
      vertex   -1.240955e+02 1.788303e+02 6.000000e+02
      vertex   -1.240955e+02 -7.191428e+01 3.000000e+02
      vertex   -1.240955e+02 -7.191428e+01 6.000000e+02
    endloop
  endfacet
  facet normal 0.000000e+00 1.000000e+00 0.000000e+00
    outer loop
      vertex   2.800613e+01 1.788303e+02 0.000000e+00
      vertex   -1.240955e+02 1.788303e+02 -7.105427e-14
      vertex   2.800613e+01 1.788303e+02 3.000000e+02
    endloop
  endfacet
  facet normal 0.000000e+00 1.000000e+00 0.000000e+00
    outer loop
      vertex   2.800613e+01 1.788303e+02 3.000000e+02
      vertex   -1.240955e+02 1.788303e+02 -7.105427e-14
      vertex   -1.240955e+02 1.788303e+02 3.000000e+02
    endloop
  endfacet
  facet normal 0.000000e+00 1.000000e+00 0.000000e+00
    outer loop
      vertex   2.800613e+01 1.788303e+02 3.000000e+02
      vertex   -1.240955e+02 1.788303e+02 3.000000e+02
      vertex   2.800613e+01 1.788303e+02 6.000000e+02
    endloop
  endfacet
  facet normal 0.000000e+00 1.000000e+00 0.000000e+00
    outer loop
      vertex   2.800613e+01 1.788303e+02 6.000000e+02
      vertex   -1.240955e+02 1.788303e+02 3.000000e+02
      vertex   -1.240955e+02 1.788303e+02 6.000000e+02
    endloop
  endfacet
  facet normal 1.000000e+00 -0.000000e+00 4.736952e-16
    outer loop
      vertex   2.800613e+01 -7.191428e+01 0.000000e+00
      vertex   2.800613e+01 1.788303e+02 0.000000e+00
      vertex   2.800613e+01 -7.191428e+01 3.000000e+02
    endloop
  endfacet
  facet normal 1.000000e+00 -0.000000e+00 4.736952e-16
    outer loop
      vertex   2.800613e+01 -7.191428e+01 3.000000e+02
      vertex   2.800613e+01 1.788303e+02 0.000000e+00
      vertex   2.800613e+01 1.788303e+02 3.000000e+02
    endloop
  endfacet
  facet normal 1.000000e+00 -0.000000e+00 4.618528e-16
    outer loop
      vertex   2.800613e+01 -7.191428e+01 3.000000e+02
      vertex   2.800613e+01 1.788303e+02 3.000000e+02
      vertex   2.800613e+01 -7.191428e+01 6.000000e+02
    endloop
  endfacet
  facet normal 1.000000e+00 -0.000000e+00 4.618528e-16
    outer loop
      vertex   2.800613e+01 -7.191428e+01 6.000000e+02
      vertex   2.800613e+01 1.788303e+02 3.000000e+02
      vertex   2.800613e+01 1.788303e+02 6.000000e+02
    endloop
  endfacet
  facet normal 0.000000e+00 -1.000000e+00 0.000000e+00
    outer loop
      vertex   -1.240955e+02 -7.191428e+01 0.000000e+00
      vertex   2.800613e+01 -7.191428e+01 0.000000e+00
      vertex   -1.240955e+02 -7.191428e+01 3.000000e+02
    endloop
  endfacet
  facet normal 0.000000e+00 -1.000000e+00 0.000000e+00
    outer loop
      vertex   -1.240955e+02 -7.191428e+01 3.000000e+02
      vertex   2.800613e+01 -7.191428e+01 0.000000e+00
      vertex   2.800613e+01 -7.191428e+01 3.000000e+02
    endloop
  endfacet
  facet normal 0.000000e+00 -1.000000e+00 0.000000e+00
    outer loop
      vertex   -1.240955e+02 -7.191428e+01 3.000000e+02
      vertex   2.800613e+01 -7.191428e+01 3.000000e+02
      vertex   -1.240955e+02 -7.191428e+01 6.000000e+02
    endloop
  endfacet
  facet normal 0.000000e+00 -1.000000e+00 0.000000e+00
    outer loop
      vertex   -1.240955e+02 -7.191428e+01 6.000000e+02
      vertex   2.800613e+01 -7.191428e+01 3.000000e+02
      vertex   2.800613e+01 -7.191428e+01 6.000000e+02
    endloop
  endfacet
  facet normal -0.000000e+00 4.533969e-16 1.000000e+00
    outer loop
      vertex   -1.240955e+02 -7.191428e+01 6.000000e+02
      vertex   2.800613e+01 -7.191428e+01 6.000000e+02
      vertex   -1.240955e+02 1.788303e+02 6.000000e+02
    endloop
  endfacet
  facet normal -7.474400e-16 0.000000e+00 1.000000e+00
    outer loop
      vertex   -1.240955e+02 1.788303e+02 6.000000e+02
      vertex   2.800613e+01 -7.191428e+01 6.000000e+02
      vertex   2.800613e+01 1.788303e+02 6.000000e+02
    endloop
  endfacet
  facet normal 0.000000e+00 0.000000e+00 -1.000000e+00
    outer loop
      vertex   2.800613e+01 -7.191428e+01 0.000000e+00
      vertex   -1.240955e+02 -7.191428e+01 0.000000e+00
      vertex   2.800613e+01 1.788303e+02 0.000000e+00
    endloop
  endfacet
  facet normal 4.671500e-16 -2.833731e-16 -1.000000e+00
    outer loop
      vertex   2.800613e+01 1.788303e+02 0.000000e+00
      vertex   -1.240955e+02 -7.191428e+01 0.000000e+00
      vertex   -1.240955e+02 1.788303e+02 -7.105427e-14
    endloop
  endfacet
endsolid
